<?xml version="1.0" standalone="no"?>
<!DOCTYPE svg PUBLIC "-//W3C//DTD SVG 20010904//EN"
 "http://www.w3.org/TR/2001/REC-SVG-20010904/DTD/svg10.dtd">
<svg version="1.0" xmlns="http://www.w3.org/2000/svg"
 width="439.000000pt" height="439.000000pt" viewBox="0 0 439.000000 439.000000"
 preserveAspectRatio="xMidYMid meet">
<metadata>
Created by potrace 1.11, written by Peter Selinger 2001-2013
</metadata>
<g transform="translate(0.000000,439.000000) scale(0.100000,-0.100000)"
fill="#000000" stroke="none">
<path d="M2065 4362 c-185 -12 -412 -57 -580 -115 -80 -28 -244 -96 -262 -109
-6 -5 -35 -22 -65 -37 -106 -56 -138 -75 -138 -83 0 -4 -5 -8 -11 -8 -5 0 -31
-16 -57 -35 -26 -19 -67 -49 -91 -67 -197 -146 -392 -370 -558 -643 -61 -100
-166 -352 -203 -488 -20 -74 -24 -89 -35 -147 -5 -27 -12 -60 -20 -100 -19
-98 -27 -439 -13 -565 20 -172 63 -359 114 -494 14 -36 26 -70 28 -76 9 -31
92 -204 124 -260 69 -120 140 -226 163 -245 3 -3 10 -12 15 -22 26 -47 204
-235 305 -321 295 -252 694 -439 1048 -492 20 -3 46 -7 57 -9 128 -25 478 -25
614 -1 14 2 42 7 64 10 21 3 41 7 45 9 3 2 24 7 46 10 22 4 48 9 57 12 9 3 25
7 36 9 71 13 288 96 407 155 474 234 820 600 1044 1102 30 67 99 275 111 333
22 109 40 211 47 269 9 78 9 403 0 481 -72 598 -377 1133 -853 1491 -62 46
-116 84 -122 84 -6 0 -12 3 -14 8 -4 9 -123 79 -206 121 -101 51 -267 116
-349 138 -30 8 -40 10 -83 22 -25 7 -56 15 -70 17 -14 2 -45 9 -70 14 -25 5
-67 12 -95 15 -27 3 -65 8 -84 11 -38 6 -285 11 -346 6z"/>
</g>
</svg>
